<?xml version="1.0" standalone="yes"?>
<svg xmlns="http://www.w3.org/2000/svg" width="467" height="83">
<path style="fill:#010101; stroke:none;" d="M0 0L0 83L467 83L467 0L0 0z"/>
<path style="fill:#fb8402; stroke:none;" d="M2 2L2 81L98 81L98 2L2 2z"/>
<path style="fill:#010101; stroke:none;" d="M9 9L9 20L20 20L20 9L9 9M80 9L80 20L92 20L92 9L80 9z"/>
<path style="fill:#fe7f01; stroke:none;" d="M175 17L178 27L190 25L191 23C189.286 13.4442 182.703 11.2825 175 17z"/>
<path style="fill:#fb8402; stroke:none;" d="M182.667 13.3333L183.333 13.6667L182.667 13.3333z"/>
<path style="fill:#ffff01; stroke:none;" d="M185 13L186 14L185 13z"/>
<path style="fill:#fe7f01; stroke:none;" d="M200 13L200 81L213 81L213 13L200 13z"/>
<path style="fill:#fb8402; stroke:none;" d="M213 13L213 81L214 81L214 34L213 13z"/>
<path style="fill:#fe7f01; stroke:none;" d="M404.174 13.8102C394.861 15.5121 399.291 28.0866 407.995 26.7562C417.872 25.2463 413.751 12.0602 404.174 13.8102z"/>
<path style="fill:#fb8402; stroke:none;" d="M405 13L405 14L408 14L405 13M187 14L188 15L187 14M402 14L403 15L402 14z"/>
<path style="fill:#ffff01; stroke:none;" d="M411 14L412 15L411 14z"/>
<path style="fill:#fb8402; stroke:none;" d="M177 15L178 16L177 15z"/>
<path style="fill:#fe7f01; stroke:none;" d="M126 16L126 81L141 81L141 55L166 55L166 44L141 44L141 27C153.482 27 169.998 32.0048 170 16L126 16z"/>
<path style="fill:#fb8402; stroke:none;" d="M189 16L190 17L189 16M400 16L401 17L400 16M413 17L414 18L413 17M175 18L175 21L176 21L175 18M190 19L190 22L191 22L190 19M398 19L399 20L398 19M398 21L399 22L398 21z"/>
<path style="fill:#010101; stroke:none;" d="M39 22L39 61L67 42C60.4913 34.1196 48.2174 26.3798 39 22z"/>
<path style="fill:#fb8402; stroke:none;" d="M413 22L414 23L413 22z"/>
<path style="fill:#ffff01; stroke:none;" d="M175 23L176 24L175 23z"/>
<path style="fill:#fb8402; stroke:none;" d="M189 23L190 24L189 23M399 23L400 24L399 23M176 24L177 25L176 24M188.333 24.6667L188.667 25.3333L188.333 24.6667M177 25L178 26L177 25z"/>
<path style="fill:#ffff01; stroke:none;" d="M400 25L401 26L400 25z"/>
<path style="fill:#fb8402; stroke:none;" d="M168.667 26.3333L169.333 26.6667L168.667 26.3333M179 26L180 27L179 26z"/>
<path style="fill:#ffff01; stroke:none;" d="M187 26L188 27L187 26z"/>
<path style="fill:#fb8402; stroke:none;" d="M402 26L403 27L402 26M410 26L411 27L410 26z"/>
<path style="fill:#010101; stroke:none;" d="M9 27L9 38L20 38L20 27L9 27M80 27L80 38L92 38L92 27L80 27z"/>
<path style="fill:#ffff01; stroke:none;" d="M243 32L244 33L243 32z"/>
<path style="fill:#fb8402; stroke:none;" d="M244 32L245 33L244 32z"/>
<path style="fill:#fe7f01; stroke:none;" d="M237 36C234.261 31.7759 228.57 33 224 33L224 81L238 81C238 73.3887 233.51 43.0025 245 43.186C249.886 43.264 251.503 47.9789 251.854 52.0394C252.679 61.5751 252 71.43 252 81L266 81C266 68.3206 263.379 54.8195 268 43C285.715 44.3728 280 67.2709 280 81L294 81C294 65.5912 296.977 47.3958 288 34L286 35C280.56 27.8544 270.574 34.3064 263.985 35.3187C260.73 35.8188 258.397 33.2685 255.424 32.4653C249.178 30.7773 242.329 32.7556 237 36z"/>
<path style="fill:#fb8402; stroke:none;" d="M255 32L256 33L255 32M271 32L272 33L271 32M283 32L284 33L283 32z"/>
<path style="fill:#ffff01; stroke:none;" d="M315 32L316 33L315 32z"/>
<path style="fill:#fb8402; stroke:none;" d="M316 32L317 33L316 32z"/>
<path style="fill:#fe7f01; stroke:none;" d="M334 81L334 79C343.827 77.7327 347.081 63.4756 346.604 55.0139C345.723 39.3583 334.249 30.2396 319.001 32.1875C300.919 34.4973 293.668 60.2554 304.558 73.9097C312.089 83.3536 323.43 82.0259 334 81z"/>
<path style="fill:#fb8402; stroke:none;" d="M329 32L330 33L329 32M437 32L438 33L437 32z"/>
<path style="fill:#fe7f01; stroke:none;" d="M427 41C422.556 43.6559 421.953 49.1217 421.36 54C419.416 69.9802 428.99 81.7874 445 81.9892C450.853 82.063 460.256 80.895 463.288 74.8117C465.377 70.6201 459.866 67.0261 457 65L453 71C443.877 70.3132 438.814 70.9217 435 61L466 61C465.982 52.6434 465.666 41.0848 457.995 35.7778C450.654 30.6985 428.763 29.1041 427 41z"/>
<path style="fill:#fb8402; stroke:none;" d="M439 32L440 33L439 32M450 32L451 33L450 32z"/>
<path style="fill:#ffff01; stroke:none;" d="M451 32L452 33L451 32z"/>
<path style="fill:#fe7f01; stroke:none;" d="M176 33L176 81L189 81L189 33L176 33z"/>
<path style="fill:#fb8402; stroke:none;" d="M189 33L189 81L190 81C190 67.4735 194.209 45.4143 189 33M223 33L223 81L224 81C224 67.4735 228.209 45.4143 223 33M236 33L237 34L236 33M241 33L242 34L241 33M258 33L259 34L258 33M269 33L270 34L269 33z"/>
<path style="fill:#ffff01; stroke:none;" d="M286 33L287 34L286 33z"/>
<path style="fill:#fb8402; stroke:none;" d="M313 33L314 34L313 33z"/>
<path style="fill:#fe7f01; stroke:none;" d="M348 33L359 67L364 81L378 81L394 33C390.167 33 383.78 31.794 380.458 34.0131C374.913 37.7162 372.752 56.6125 372 63L371 63L364 34L348 33z"/>
<path style="fill:#fb8402; stroke:none;" d="M379 33L380 34L379 33M399 33L399 81L400 81C400 67.4735 404.209 45.4143 399 33z"/>
<path style="fill:#fe7f01; stroke:none;" d="M400 33L400 81L414 81L414 33L400 33z"/>
<path style="fill:#fb8402; stroke:none;" d="M434 33L435 34L434 33M453 33L454 34L453 33M240 34L241 35L240 34M259 34L260 35L259 34M286 34L287 35L286 34M312 34L313 35L312 34M432 34L433 35L432 34M454 34L455 35L454 34M260 35L261 36L260 35M288 35L289 36L288 35M309 35L310 36L309 35M336 35L337 36L336 35M363 35L364 36L363 35M393 35L394 36L393 35M236 36L237 37L236 36M265 36L264 38L265 36M308 36L309 37L308 36M337 36L338 37L337 36z"/>
<path style="fill:#ffff01; stroke:none;" d="M338 36L339 37L338 36z"/>
<path style="fill:#fb8402; stroke:none;" d="M290 37L291 38L290 37M378 37L379 38L378 37M392 37L393 38L392 37M428 37L429 38L428 37z"/>
<path style="fill:#ffff01; stroke:none;" d="M341 39L342 40L341 39z"/>
<path style="fill:#fb8402; stroke:none;" d="M460 39L461 40L460 39M291 40L292 41L291 40M391 40L392 41L391 40M425.667 40.3333L426.333 40.6667L425.667 40.3333z"/>
<path style="fill:#ffff01; stroke:none;" d="M292 41L293 42L292 41M303 41L304 42L303 41M365 41L366 42L365 41z"/>
<path style="fill:#fe7f01; stroke:none;" d="M65 42L66 43L65 42z"/>
<path style="fill:#fb8402; stroke:none;" d="M244.667 42.3333L245.333 42.6667L244.667 42.3333M272.667 42.3333L273.333 42.6667L272.667 42.3333M292 42L293 43L292 42M322.667 42.3333L323.333 42.6667L322.667 42.3333z"/>
<path style="fill:#ffff01; stroke:none;" d="M343 42L344 43L343 42z"/>
<path style="fill:#fb8402; stroke:none;" d="M365 42L366 43L365 42M443.667 42.3333L444.333 42.6667L443.667 42.3333M248 43L249 44L248 43M268 43L269 44L268 43M276 43L277 44L276 43M302 43L303 44L302 43M317 45L320 44L317 45z"/>
<path style="fill:#010101; stroke:none;" d="M320.094 43.7461C309.647 47.9575 312.624 75.4638 325.957 70.2539C336.612 66.09 333.538 38.3268 320.094 43.7461z"/>
<path style="fill:#fb8402; stroke:none;" d="M327 43L328 44L327 43M343 43L344 44L343 43z"/>
<path style="fill:#ffff01; stroke:none;" d="M376 43L377 44L376 43z"/>
<path style="fill:#fb8402; stroke:none;" d="M390.333 43.6667L390.667 44.3333L390.333 43.6667M440 43L441 44L440 43z"/>
<path style="fill:#010101; stroke:none;" d="M436 52L452 52C450.244 40.9787 437.279 40.5478 436 52z"/>
<path style="fill:#fb8402; stroke:none;" d="M463 43L464 44L463 43M239 44L240 45L239 44z"/>
<path style="fill:#ffff01; stroke:none;" d="M249 44L250 45L249 44M277 44L278 45L277 44z"/>
<path style="fill:#fb8402; stroke:none;" d="M292 44L293 45L292 44M328 44L329 45L328 44z"/>
<path style="fill:#ffff01; stroke:none;" d="M344 44L345 45L344 44z"/>
<path style="fill:#fb8402; stroke:none;" d="M376 44L377 45L376 44M423 44L424 45L423 44z"/>
<path style="fill:#010101; stroke:none;" d="M9 45L9 56L20 56L20 45L9 45M80 45L80 56L92 56L92 45L80 45z"/>
<path style="fill:#fb8402; stroke:none;" d="M250 45L251 46L250 45z"/>
<path style="fill:#ffff01; stroke:none;" d="M301 45L302 46L301 45z"/>
<path style="fill:#fb8402; stroke:none;" d="M344 45L345 46L344 45M389 45L389 48L390 48L389 45M450 45L451 46L450 45M464 45L465 46L464 45M301.333 46.6667L301.667 47.3333L301.333 46.6667z"/>
<path style="fill:#ffff01; stroke:none;" d="M316 46L317 47L316 46z"/>
<path style="fill:#fb8402; stroke:none;" d="M366 46L367 47L366 46M251 47L252 48L251 47M265 47L266 48L265 47M279 47L280 48L279 47M293 47L294 48L293 47M330.667 47.3333L331.333 47.6667L330.667 47.3333z"/>
<path style="fill:#ffff01; stroke:none;" d="M345 47L346 48L345 47z"/>
<path style="fill:#fb8402; stroke:none;" d="M422 47L422 50L423 50L422 47M436 47L437 48L436 47M464 47L465 48L464 47M345 48L346 49L345 48M375 48L376 49L375 48M388 48L388 51L389 51L388 48M451 48L452 49L451 48z"/>
<path style="fill:#ff0101; stroke:none;" d="M55 49L56 50L55 49z"/>
<path style="fill:#fb8402; stroke:none;" d="M251 49L251 81L252 81L251 49M279 49L279 81L280 81L279 49M300 50L301 51L300 50M314 50L315 51L314 50M345 50L346 51L345 50M421.333 50.6667L421.667 51.3333L421.333 50.6667M435 50L436 51L435 50M332 51L333 52L332 51M465.333 51.6667L465.667 52.3333L465.333 51.6667M300 52L301 53L300 52z"/>
<path style="fill:#ffff01; stroke:none;" d="M346 52L347 53L346 52z"/>
<path style="fill:#fb8402; stroke:none;" d="M368 52L369 53L368 52M332.333 53.6667L332.667 54.3333L332.333 53.6667M387 53L388 54L387 53M421.333 53.6667L421.667 54.3333L421.333 53.6667M313 54L313 61L314 61L313 54M355 54L356 55L355 54M368 54L369 55L368 54M373 54L374 55L373 54M346 56L346 59L347 59L346 56M373 56L374 57L373 56M386 56L387 57L386 56M356 57L357 58L356 57M369.333 57.6667L369.667 58.3333L369.333 57.6667M332 58L332 61L333 61L332 58z"/>
<path style="fill:#ffff01; stroke:none;" d="M370 59L371 60L370 59z"/>
<path style="fill:#fb8402; stroke:none;" d="M372.333 59.6667L372.667 60.3333L372.333 59.6667z"/>
<path style="fill:#ffff01; stroke:none;" d="M385 59L386 60L385 59z"/>
<path style="fill:#fb8402; stroke:none;" d="M370 60L371 61L370 60M421.333 60.6667L421.667 61.3333L421.333 60.6667M300 61L301 62L300 61M346 61L347 62L346 61z"/>
<path style="fill:#ffff01; stroke:none;" d="M371 61L372 62L371 61M314 62L315 63L314 62z"/>
<path style="fill:#fb8402; stroke:none;" d="M332 62L333 63L332 62M345 62L346 63L345 62M358 62L359 63L358 62M371 62L372 63L371 62z"/>
<path style="fill:#ffff01; stroke:none;" d="M384 62L385 63L384 62z"/>
<path style="fill:#fb8402; stroke:none;" d="M435 62L436 63L435 62z"/>
<path style="fill:#010101; stroke:none;" d="M9 63L9 74L20 74L20 63L9 63M80 63L80 74L92 74L92 63L80 63z"/>
<path style="fill:#fb8402; stroke:none;" d="M300.333 63.6667L300.667 64.3333L300.333 63.6667M421.333 63.6667L421.667 64.3333L421.333 63.6667M345 64L345 67L346 67L345 64M359 65L360 66L359 65z"/>
<path style="fill:#ffff01; stroke:none;" d="M383 65L384 66L383 65z"/>
<path style="fill:#fb8402; stroke:none;" d="M436 65L437 66L436 65z"/>
<path style="fill:#ffff01; stroke:none;" d="M458 65L459 66L458 65z"/>
<path style="fill:#fb8402; stroke:none;" d="M315 66L316 67L315 66z"/>
<path style="fill:#ffff01; stroke:none;" d="M330 66L331 67L330 66z"/>
<path style="fill:#fb8402; stroke:none;" d="M382.333 66.6667L382.667 67.3333L382.333 66.6667M422.333 66.6667L422.667 67.3333L422.333 66.6667z"/>
<path style="fill:#ffff01; stroke:none;" d="M437 66L438 67L437 66z"/>
<path style="fill:#fb8402; stroke:none;" d="M457 66L458 67L457 66z"/>
<path style="fill:#ffff01; stroke:none;" d="M316 67L317 68L316 67z"/>
<path style="fill:#fb8402; stroke:none;" d="M360 67L360 70L361 70L360 67z"/>
<path style="fill:#ffff01; stroke:none;" d="M455 67L456 68L455 67M301 68L302 69L301 68M382 68L383 69L382 68M344 69L345 70L344 69z"/>
<path style="fill:#fb8402; stroke:none;" d="M381.333 69.6667L381.667 70.3333L381.333 69.6667M439 69L440 70L439 69z"/>
<path style="fill:#ffff01; stroke:none;" d="M440 69L441 70L440 69z"/>
<path style="fill:#fb8402; stroke:none;" d="M303 70L304 71L303 70M319 70L320 71L319 70M361 70L361 73L362 73L361 70z"/>
<path style="fill:#ffff01; stroke:none;" d="M423 70L424 71L423 70z"/>
<path style="fill:#fb8402; stroke:none;" d="M441 70L442 71L441 70z"/>
<path style="fill:#ffff01; stroke:none;" d="M442 70L443 71L442 70M450 70L451 71L450 70z"/>
<path style="fill:#fb8402; stroke:none;" d="M452 70L453 71L452 70M322 71L322 72L326 72L322 71z"/>
<path style="fill:#ffff01; stroke:none;" d="M343 71L344 72L343 71M381 71L382 72L381 71z"/>
<path style="fill:#fb8402; stroke:none;" d="M424 71L425 72L424 71M445 71L445 72L448 72L445 71M462 71L464 73L462 71z"/>
<path style="fill:#ffff01; stroke:none;" d="M303 72L304 73L303 72z"/>
<path style="fill:#fb8402; stroke:none;" d="M342 72L343 73L342 72M380.333 72.6667L380.667 73.3333L380.333 72.6667M362 73L363 74L362 73M426 73L427 74L426 73z"/>
<path style="fill:#ffff01; stroke:none;" d="M341 74L342 75L341 74z"/>
<path style="fill:#fb8402; stroke:none;" d="M362 75L363 76L362 75M379.333 75.6667L379.667 76.3333L379.333 75.6667M428 76L429 77L428 76M308 77L309 78L308 77z"/>
<path style="fill:#ffff01; stroke:none;" d="M338 77L339 78L338 77z"/>
<path style="fill:#fb8402; stroke:none;" d="M460 77L461 78L460 77M309 78L310 79L309 78M363 78L364 79L363 78M378.333 78.6667L378.667 79.3333L378.333 78.6667M334 79L335 80L334 79M457 79L458 80L457 79M313 80L314 81L313 80M332 80L333 81L332 80z"/>
<path style="fill:#ffff01; stroke:none;" d="M434 80L435 81L434 80z"/>
<path style="fill:#fb8402; stroke:none;" d="M455 80L456 81L455 80z"/>
<path style="fill:#ffff01; stroke:none;" d="M315 81L316 82L315 81z"/>
<path style="fill:#fb8402; stroke:none;" d="M316.667 81.3333L317.333 81.6667L316.667 81.3333M438.667 81.3333L439.333 81.6667L438.667 81.3333z"/>
</svg>
